<svg width="592" height="592" viewBox="0 0 592 592" fill="none" xmlns="http://www.w3.org/2000/svg">
<path d="M557.646 313.132C509.12 216.198 370.227 74.2277 189.786 73.8634C1.50258 73.4809 -16.7128 255.853 84.7742 306.538C186.261 357.222 37.8696 420.384 143.974 483.91C251.345 548.165 480.795 542.135 537.281 492.107C593.767 442.078 578.63 355.009 557.646 313.132Z" fill="url(#paint0_linear)"/>
<path d="M433.462 484.866C432.641 484.867 431.83 484.691 431.083 484.35C430.337 484.009 429.672 483.512 429.135 482.892C428.597 482.271 428.2 481.543 427.969 480.755C427.738 479.967 427.679 479.139 427.797 478.327L439.409 383.325L450.594 384.591L439.127 479.975C438.726 482.771 433.462 484.866 433.462 484.866Z" fill="url(#paint1_linear)"/>
<path d="M531.388 482.617L517.535 380.61L526.925 376.867L542.6 480.695C543.246 484.383 540.405 485.057 537.609 485.567C534.813 486.078 532.053 486.351 531.388 482.617Z" fill="url(#paint2_linear)"/>
<path d="M495.221 494.839L483.381 378.552H494.939L506.715 494.01C506.97 497.599 504.238 497.462 501.542 497.863C498.546 498.318 495.513 498.892 495.221 494.839Z" fill="url(#paint3_linear)"/>
<path d="M538.119 365.009C535.678 383.079 509.12 385.656 478.154 386.621C477.243 387.095 443.062 386.886 427.151 381.521L427.706 259.15C427.706 248.813 432.123 231.763 447.197 231.517C472.516 231.098 519.475 227.237 537.864 232.92C542.062 248.021 545.15 264.697 538.128 308.314C534.12 333.278 539.303 356.338 538.119 365.009Z" fill="url(#paint4_linear)"/>
<path d="M531.151 240.516C536.743 257.347 536.06 267.119 528.574 294.351C516.105 339.735 536.57 363.042 493.318 385.929C519.539 384.436 536.033 380.392 538.119 364.982C539.303 356.311 534.12 333.25 538.119 308.286C543.283 276.163 552.91 249.915 540.104 234.395C536.561 230.133 529.266 234.824 531.151 240.516Z" fill="url(#paint5_linear)"/>
<path d="M431.504 457.552L436.331 466.305L447.051 473.254L451.55 472.644L457.616 459.064L454.118 452.862L444.564 443.955L431.504 457.552Z" fill="url(#paint6_linear)"/>
<path d="M376.767 472.689C369.699 470.075 360.236 464.492 360.236 464.492C360.236 464.492 348.451 477.243 347.148 478.418C351.511 480.139 349.316 492.726 352.914 494.684C356.511 496.642 366.056 488.054 370.646 489.11C371.065 485.158 375.519 474.893 376.767 472.689Z" fill="url(#paint7_linear)"/>
<path d="M320.846 483.682C320.846 483.682 312.257 481.788 309.006 482.963C305.754 484.138 304.88 486.606 304.634 489.202C304.388 491.797 307.166 495.522 317.831 499.493C328.759 503.387 339.89 506.689 351.174 509.384C354.662 510.085 360.591 511.142 365.628 510.851C367.021 510.749 368.347 510.207 369.412 509.303C370.478 508.4 371.229 507.181 371.557 505.823C371.815 504.78 372.165 503.762 372.605 502.781C373.515 500.96 373.169 498.837 373.688 497.316C374.207 495.796 375.455 485.577 372.595 484.056C369.736 482.535 365.027 491.342 358.615 490.641C352.203 489.939 351.493 481.897 351.493 481.897C351.493 481.897 354.553 479.092 352.905 477.134C351.256 475.176 353.141 473.609 351.848 472.835C350.555 472.061 345.946 474.802 345.946 474.802C345.946 474.802 331.137 480.886 325.336 483.345C324.17 483.837 320.846 483.682 320.846 483.682Z" fill="#191337"/>
<path d="M308.459 491.333C327.512 502.198 349.589 502.426 349.589 502.426C355.773 503.865 361.948 507.972 369.89 503.255L370.592 502.881" stroke="white" stroke-width="0.901662" stroke-miterlimit="10" stroke-linecap="round"/>
<path d="M432.433 461.332C432.433 461.332 443.426 464.638 445.566 468.208C447.707 471.778 455.047 460.877 451.814 454.711C448.581 448.545 452.989 449.556 456.022 452.06C459.055 454.565 461.487 452.743 463.636 454.556C465.785 456.368 470.111 460.357 466.933 467.853C463.754 475.349 456.632 478.582 453.809 484.247C450.985 489.912 451.987 501.324 447.661 505.614C443.335 509.903 435.083 515.377 425.739 510.796C416.394 506.215 424.746 493.71 426.914 490.604C429.081 487.498 429.509 476.842 429.646 472.462C429.783 468.081 429.018 462.671 432.433 461.332Z" fill="#191337"/>
<path d="M455.758 453.427C455.758 453.427 461.906 455.248 459.783 462.807C457.661 470.367 449.92 476.068 449.091 484.019C448.262 491.97 448.362 499.02 440.676 504.776C432.989 510.532 429.628 509.73 429.628 509.73" stroke="white" stroke-width="0.692185" stroke-miterlimit="10"/>
<path d="M498.291 165.086C499.629 162.654 501.415 155.924 502.271 153.865C498.737 153.665 494.72 158.246 494.119 161.361C495.048 161.416 497.453 164.23 498.291 165.086Z" fill="url(#paint8_linear)"/>
<path d="M442.205 329.562C432.825 331.156 405.966 344.398 398.953 353.151C393.561 359.9 389.609 379.672 380.127 402.888C377.395 395.993 373.898 383.488 372.158 376.94C369.736 367.832 367.504 347.477 388.188 342.203C401.886 338.715 431.868 328.888 442.205 329.562Z" fill="url(#paint9_linear)"/>
<path d="M425.857 328.915C425.857 328.915 402.769 339.844 392.341 352.595C384.144 362.614 376.767 393.052 376.767 393.052" stroke="#F3F6FD" stroke-width="0.938092" stroke-miterlimit="10" stroke-linecap="round"/>
<path d="M446.277 443.827L427.852 461.924C425.411 460.02 398.015 419.455 398.015 419.455L425.083 378.306C425.083 378.306 449.455 442.634 446.277 443.827Z" fill="url(#paint10_linear)"/>
<path d="M504.757 270.016C511.133 272.857 531.516 270.143 538.128 269.023C538.128 269.023 537.217 231.026 526.242 219.076C515.268 207.127 491.551 209.632 491.551 209.632L467.698 211.298C449.683 213.858 439.701 218.785 432.688 229.623C424.418 242.465 419.865 258.121 419.409 261.91C419.553 262.142 419.724 262.356 419.919 262.547C422.834 265.498 432.67 267.393 432.67 267.393C432.67 267.393 431.495 280.517 431.24 287.803C431.24 288.668 431.195 289.452 431.195 290.116L431.868 290.271L435.229 327.103L519.302 329.453L516.142 292.612C516.142 292.612 505.422 276.327 504.757 270.016Z" fill="#FD6500"/>
<path d="M432.688 267.384C432.688 267.384 432.688 278.85 433.681 287.047C414.828 295.545 408.48 302.293 408.726 303.678L403.653 296.911C403.255 296.153 403.027 295.317 402.985 294.462C402.943 293.607 403.087 292.753 403.407 291.96C403.728 291.166 404.217 290.452 404.842 289.866C405.466 289.28 406.21 288.837 407.023 288.568L414.919 286.273L419.91 262.502C422.824 265.489 432.688 267.384 432.688 267.384Z" fill="url(#paint11_linear)"/>
<path d="M516.452 329.525C516.452 329.525 526.024 362.96 494.338 374.089C473.855 381.284 435.348 379.791 435.348 379.791C435.348 379.791 378.516 479.72 376.148 478.737L353.378 468.135C351.347 467.297 385.255 362.295 392.177 353.752C399.226 345.036 410.01 332.595 419.391 330.983C429.564 329.252 437.725 327.203 437.725 327.203L516.452 329.525Z" fill="url(#paint12_linear)"/>
<path d="M493.336 179.422L493.09 179.713C492.781 181.456 492.583 183.218 492.498 184.986C492.498 185.25 492.498 185.524 492.444 185.806C492.252 189.076 492.006 193.293 491.77 197.391C491.433 203.284 491.369 208.375 491.314 210.342C491.169 215.133 485.649 220.361 475.585 220.097C472.828 220.098 470.147 219.19 467.957 217.514C465.767 215.838 464.191 213.487 463.472 210.825C463.472 210.825 463.171 209.914 463.29 206.034L463.344 204.322V202.737L463.399 200.797C462.501 200.737 461.607 200.625 460.721 200.46C453.763 199.158 442.961 194.158 440.02 182.709C437.97 174.713 441.258 167.591 441.55 162.964C441.841 158.337 440.129 154.949 439.546 149.721C439.435 148.711 439.411 147.694 439.473 146.679C439.684 142.481 441.041 138.42 443.399 134.94C443.911 134.211 444.546 133.576 445.275 133.063C471.96 115.604 496.369 120.14 502.271 132.062C508.765 145.268 500.449 159.448 497.453 161.944C500.686 164.74 500.395 171.061 493.336 179.422Z" fill="url(#paint13_linear)"/>
<path d="M504.812 269.679L502.59 256.846" stroke="white" stroke-width="0.938092" stroke-miterlimit="10" stroke-linecap="round"/>
<path d="M432.688 267.384L434.673 256.846" stroke="white" stroke-width="0.938092" stroke-miterlimit="10" stroke-linecap="round"/>
<path d="M492.434 185.797C489.207 190.809 484.929 195.059 479.897 198.255C474.865 201.45 469.198 203.514 463.29 204.304L463.335 202.719L463.39 200.77C462.488 200.711 461.591 200.599 460.703 200.433C467.033 196.79 484.675 186.507 493.29 179.394L493.045 179.686C492.735 181.429 492.537 183.19 492.453 184.959C492.48 185.26 492.453 185.524 492.434 185.797Z" fill="url(#paint14_linear)"/>
<path d="M491.451 166.452C491.451 166.452 494.119 163.146 495.74 165.851C497.362 168.556 494.393 172.864 494.393 172.864L491.451 166.452Z" fill="url(#paint15_linear)"/>
<path d="M461.031 218.293C461.031 218.293 462.361 226.763 476.879 225.944C491.396 225.124 495.814 213.803 495.814 213.803" stroke="white" stroke-width="0.938092" stroke-miterlimit="10" stroke-linecap="round"/>
<path d="M228.794 490.222C229.617 490.222 230.431 490.046 231.18 489.704C231.929 489.362 232.595 488.864 233.134 488.242C233.673 487.62 234.072 486.889 234.304 486.099C234.536 485.309 234.595 484.479 234.477 483.664L220.925 383.215L209.704 384.481L223.138 485.294C223.521 488.127 228.794 490.222 228.794 490.222Z" fill="url(#paint16_linear)"/>
<path d="M128.628 482.844L142.526 380.483L133.099 376.721L117.371 480.886C116.724 484.584 119.565 485.267 122.38 485.777C125.194 486.287 127.972 486.624 128.628 482.844Z" fill="url(#paint17_linear)"/>
<path d="M164.922 495.112L176.762 378.425H165.204L153.364 494.284C153.109 497.927 155.851 497.744 158.556 498.154C161.588 498.601 164.63 499.183 164.922 495.112Z" fill="url(#paint18_linear)"/>
<path d="M121.879 364.836C124.329 382.969 151.023 385.556 182.063 386.521C182.828 386.904 205.906 386.84 223.047 383.853C225.889 383.345 228.461 381.851 230.31 379.633C232.16 377.416 233.167 374.618 233.157 371.73L232.683 258.658C232.683 248.294 228.248 231.181 213.12 230.926C187.709 230.507 140.595 226.636 122.143 232.337C117.926 247.483 114.857 264.214 121.879 307.986C125.895 332.995 120.695 356.111 121.879 364.836Z" fill="url(#paint19_linear)"/>
<path d="M128.874 239.906C123.263 256.801 123.956 266.6 131.46 293.933C143.974 339.471 123.436 362.86 166.835 385.829C140.522 384.326 123.965 380.273 121.879 364.836C120.695 356.129 125.896 332.959 121.879 307.94C116.697 275.708 107.033 249.36 119.884 233.794C123.436 229.514 130.768 234.195 128.874 239.906Z" fill="url(#paint20_linear)"/>
<path d="M221.699 479.52C223.922 484.894 227.392 489.056 230.807 487.926C231.714 487.712 232.515 487.18 233.065 486.427C233.614 485.673 233.876 484.748 233.803 483.819C233.8 483.792 233.8 483.764 233.803 483.737C234.259 482.771 235.907 470.203 236.709 466.305C237.565 462.215 239.924 455.713 239.997 449.355C240.06 444.392 275.845 399.901 277.994 394.044C270.216 390.401 253.695 387.368 249.268 386.758L227.41 442.807L225.097 443.372C225.097 443.372 222.947 445.576 222.246 454.793C221.545 464.01 219.495 474.137 221.699 479.52Z" fill="url(#paint21_linear)"/>
<path d="M214.03 456.969C214.03 456.969 219.131 465.33 216.763 473.063C214.395 480.795 212.928 483.719 215.397 487.498C217.865 491.278 226.854 500.122 233.339 501.16C239.823 502.198 237.71 495.185 236.618 491.97C235.962 490.039 234.723 486.333 233.84 483.691C233.836 483.718 233.836 483.746 233.84 483.773C233.912 484.703 233.65 485.628 233.101 486.381C232.551 487.134 231.751 487.666 230.843 487.881C227.446 489.001 223.976 484.848 221.736 479.474C219.495 474.101 221.608 463.928 222.309 454.711C223.011 445.494 225.16 443.29 225.16 443.29H225.297C222.662 442.812 219.944 443.26 217.601 444.556C213.138 447.169 212.045 452.352 209.404 455.485C206.945 458.652 204.647 461.941 202.518 465.339L203.894 467.653L214.03 456.969Z" fill="#FA6400"/>
<path d="M209.641 461.569C210.551 467.316 212.91 472.179 216.48 471.897C217.412 471.902 218.315 471.575 219.026 470.974C219.737 470.373 220.21 469.537 220.36 468.618C220.375 468.594 220.394 468.573 220.415 468.554C221.08 467.726 225.67 455.904 227.373 452.306C229.195 448.536 233.011 442.78 234.587 436.623C235.825 431.814 266.755 395.465 270.234 390.283C263.248 389.372 248.658 385.802 244.523 384.108L223.93 427.233H221.544C221.544 427.233 218.93 428.863 216.08 437.652C213.229 446.441 208.739 455.804 209.641 461.569Z" fill="url(#paint22_linear)"/>
<path d="M207.555 437.843C207.555 437.843 210.524 447.17 206.353 454.119C202.181 461.068 200.105 463.554 201.599 467.78C203.092 472.006 209.732 482.762 215.779 485.349C221.827 487.936 221.444 480.586 221.144 477.207C220.971 475.176 220.643 471.278 220.406 468.5C220.385 468.518 220.366 468.54 220.351 468.563C220.201 469.483 219.728 470.318 219.017 470.919C218.305 471.521 217.403 471.848 216.471 471.842C212.901 472.125 210.515 467.288 209.631 461.514C208.748 455.74 213.202 446.377 216.062 437.597C218.921 428.818 221.526 427.178 221.526 427.178H221.663C219.217 426.088 216.469 425.875 213.885 426.577C208.93 428.062 206.599 432.825 203.365 435.211C200.223 437.705 197.207 440.356 194.331 443.153L195.123 445.731L207.555 437.843Z" fill="#FA6400"/>
<path d="M244.523 329.015C216.836 324.033 207.3 323.551 207.3 323.551L206.945 312.74C206.945 312.74 223.94 259.36 223.94 253.904C223.94 246.145 215.834 237.164 210.451 226.754C207.455 220.962 199.003 214.45 192.627 213.093L174.285 211.207C174.285 211.207 161.944 215.151 158.364 234.386C154.785 253.622 169.403 292.357 168.137 304.771C166.871 317.185 154.922 334.507 163.027 351.047C172.372 370.082 212.646 373.88 231.335 372.131C235.042 371.785 246.818 374.572 243.43 383.643C258.467 389.645 278.504 394.973 279.451 395.347C302.566 353.934 299.934 339.025 244.523 329.015Z" fill="url(#paint23_linear)"/>
<path d="M218.584 297.876L242.638 319.917L259.086 321.957C260.262 321.957 261.398 322.384 262.283 323.159C264.733 325.299 268.203 329.589 268.458 329.762C268.713 329.935 272.274 333.342 274.415 335.445C274.952 335.974 274.223 336.73 273.504 336.547C271.236 335.983 267.975 334.826 266.363 332.659C263.749 329.143 261.491 328.378 261.145 328.378C260.799 328.378 256.035 327.467 256.381 328.833C256.727 330.199 261.6 331.101 261.946 331.447C262.292 331.793 267.511 333.469 266.5 335.527C265.489 337.586 255.78 332.868 253.567 332.44C251.354 332.012 246.372 331.866 244.104 331.183C241.836 330.5 216.08 313.122 216.08 313.122L218.584 297.876Z" fill="url(#paint24_linear)"/>
<path d="M182.691 232.729L183.046 233.476L211.571 287.712L206.917 287.32L182.691 232.729Z" fill="url(#paint25_linear)"/>
<path d="M163.028 247.593C163.028 247.593 190.25 303.596 200.697 304.971C203.876 304.971 210.433 300.281 210.433 300.281C209.761 302.499 208.312 304.4 206.351 305.636C204.391 306.872 202.05 307.361 199.759 307.011C184.977 305.436 163.028 247.593 163.028 247.593Z" fill="url(#paint26_linear)"/>
<path d="M172.199 190.97C175.283 195.511 179.316 199.328 184.02 202.158C188.723 204.988 193.984 206.764 199.44 207.364L199.358 205.907L199.267 204.085C191.453 201.781 182.108 196.371 171.224 185.041L171.461 185.305C171.786 186.907 172.008 188.529 172.126 190.16C172.135 190.46 172.135 190.706 172.199 190.97Z" fill="url(#paint27_linear)"/>
<path d="M218.584 168.775C218.302 165.642 218.903 162.308 219.395 158.838C219.395 158.756 219.395 158.683 219.395 158.601C219.55 157.454 219.695 156.288 219.796 155.122C219.957 153.292 219.831 151.448 219.422 149.658C217.282 139.967 207.509 132.408 198.238 131.77C187.309 131.023 170.505 134.812 167.144 147.781C166.527 150.226 166.221 152.738 166.233 155.259C166.266 159.654 166.957 164.019 168.283 168.21C167.812 168.429 167.378 168.721 166.998 169.075C165.632 170.296 164.995 172.217 165.395 174.695C165.823 177.509 167.609 181.07 171.179 185.068C171.251 185.162 171.33 185.251 171.416 185.332C171.65 186.367 171.811 187.417 171.898 188.475C171.971 189.076 172.035 189.677 172.08 190.187C172.08 190.424 172.08 190.679 172.153 190.934C172.235 191.945 172.326 192.91 172.399 193.848C173.683 208.739 174.622 213.639 174.622 213.639C174.804 216.854 190.906 225.734 200.023 232.091C200.468 232.401 200.996 232.568 201.538 232.571C202.08 232.574 202.61 232.412 203.059 232.107C203.507 231.802 203.852 231.368 204.048 230.863C204.244 230.357 204.282 229.805 204.158 229.277L199.604 210.224L199.467 208.202L199.303 205.907L199.221 204.085C199.458 204.085 199.695 204.085 199.95 204.003C200.487 203.939 201.07 203.848 201.68 203.73C208.056 202.373 217.919 197.546 220.36 186.908C222.136 179.531 218.949 173.046 218.584 168.775Z" fill="url(#paint28_linear)"/>
<path d="M219.823 155.122C219.723 156.297 219.577 157.454 219.422 158.601C213.712 160.268 202.036 158.656 192.382 162.39C188.019 164.075 183.228 171.616 178.483 176.79C176.279 170.114 167.554 156.953 168.301 153.884C171.825 140.013 195.669 162.153 217.209 147.508C218.077 148.113 218.835 148.861 219.45 149.721C219.852 151.492 219.978 153.314 219.823 155.122Z" fill="url(#paint29_linear)"/>
<path d="M199.358 205.934L199.522 208.22C191.261 207.237 181.361 203.83 172.436 193.876C172.354 192.965 172.281 191.972 172.19 190.961C172.19 190.706 172.135 190.451 172.117 190.205C172.117 189.704 172.008 189.103 171.935 188.493C182.864 197.309 192.145 201.918 199.996 204.031C199.741 204.031 199.495 204.103 199.258 204.113L199.358 205.934Z" fill="url(#paint30_linear)"/>
<path d="M172.672 173.101C172.672 173.101 170.14 170.113 168.701 172.636C167.262 175.159 170.104 179.075 170.104 179.075L172.672 173.101Z" fill="url(#paint31_linear)"/>
<path d="M207.783 123.573C197.646 128.337 200.087 116.524 191.088 121.415C185.15 124.648 182.254 123.027 176.653 123.136C171.051 123.245 164.558 128.182 163.046 134.229C162.199 137.608 161.516 135.914 158.419 139.047C157.226 140.249 153.2 141.916 153.519 146.561C153.838 151.206 149.412 148.046 147.973 157.317C147.754 158.738 148.774 160.259 148.328 162.673C147.999 164.636 148.083 166.647 148.576 168.575C149.068 170.504 149.958 172.309 151.188 173.875C158.383 183.301 162.927 181.917 172.837 198.12C172.689 193.931 172.287 189.755 171.634 185.615C166.534 177.609 164.558 175.897 165.997 171.625C168.802 163.292 178.492 176.799 178.492 176.799C178.492 176.799 179.139 168.183 191.771 159.713C185.15 159.221 180.642 159.221 180.642 159.221C180.642 159.221 199.194 153.428 200.752 153.82C211.581 156.552 215.196 156.142 220.934 153.747C224.723 152.171 218.375 143.847 220.934 142.763C224.468 141.269 220.934 136.242 220.934 133.783C220.925 125.304 211.654 121.761 207.783 123.573Z" fill="url(#paint32_linear)"/>
<path d="M179.595 225.024L206.918 287.32L251.855 297.876V306.856C251.855 306.856 212.81 308.223 200.779 306.856C188.748 305.49 161.443 243.64 161.443 243.64" fill="url(#paint33_linear)"/>
<path d="M251.854 297.876C251.854 297.876 268.968 298.377 273.494 306.856H251.854V297.876Z" fill="url(#paint34_linear)"/>
<path d="M430.584 284.16C430.584 284.16 439.145 283.459 439.145 290.626C439.145 297.794 430.584 297.913 430.584 297.913" stroke="#D6D9E8" stroke-width="5.13674" stroke-miterlimit="10"/>
<path d="M431.586 307.284H410.292L407.305 281.282C407.281 280.888 407.339 280.493 407.476 280.123C407.613 279.753 407.826 279.415 408.102 279.132C408.377 278.849 408.708 278.627 409.075 278.48C409.441 278.332 409.834 278.263 410.229 278.276H430.657C431.045 278.263 431.432 278.329 431.794 278.47C432.155 278.612 432.484 278.827 432.759 279.101C433.034 279.375 433.249 279.703 433.392 280.064C433.535 280.425 433.603 280.812 433.59 281.2L431.586 307.284Z" fill="url(#paint35_linear)"/>
<path d="M272.365 320.4L234.696 498.182" stroke="url(#paint36_linear)" stroke-width="13.789" stroke-miterlimit="10" stroke-linecap="round"/>
<path d="M380.574 320.4L411.021 498.464" stroke="url(#paint37_linear)" stroke-width="13.789" stroke-miterlimit="10" stroke-linecap="round"/>
<path d="M160.231 306.856H492.38C495.003 306.856 497.519 307.899 499.374 309.753C501.229 311.608 502.271 314.124 502.271 316.747V325.19H150.331V316.747C150.331 315.448 150.587 314.161 151.085 312.96C151.583 311.76 152.312 310.669 153.232 309.75C154.151 308.832 155.242 308.103 156.443 307.607C157.645 307.11 158.932 306.855 160.231 306.856Z" fill="url(#paint38_linear)"/>
<path d="M270.653 284.16C270.653 284.16 262.092 283.459 262.092 290.626C262.092 297.794 270.653 297.913 270.653 297.913" stroke="#D6D9E8" stroke-width="5.13674" stroke-miterlimit="10"/>
<path d="M269.642 307.284H290.945L293.932 281.282C293.957 280.888 293.898 280.493 293.761 280.123C293.624 279.753 293.411 279.415 293.136 279.132C292.86 278.849 292.529 278.627 292.163 278.48C291.796 278.332 291.403 278.263 291.009 278.276H270.58C270.192 278.263 269.805 278.329 269.444 278.47C269.082 278.612 268.754 278.827 268.479 279.101C268.204 279.375 267.988 279.703 267.845 280.064C267.702 280.425 267.635 280.812 267.648 281.2L269.642 307.284Z" fill="url(#paint39_linear)"/>
<path d="M536.57 269.305C530.723 270.216 511.069 272.839 504.757 270.016C505.422 276.327 505.486 284.142 505.486 284.142C505.486 284.142 479.401 294.106 455.885 295.791C453.626 295.534 451.385 295.142 449.173 294.616C449.173 294.616 443.18 293.14 437.825 291.984C432.469 290.827 428.717 290.617 425.001 291.774C421.285 292.931 406.786 301.027 407.032 304.525C407.278 308.022 428.371 308.095 431.413 307.467C434.455 306.838 448.226 305.153 449.173 305.153C449.419 305.153 452.215 305.672 456.459 306.428C465.093 306.428 486.715 307.157 503.719 306.875C520.723 306.592 529.475 309.962 533.956 299.834C537.354 292.029 536.443 277.338 536.57 269.305Z" fill="url(#paint40_linear)"/>
<path d="M491.451 144.548L489.629 157.126L487.944 146.953C487.944 146.953 480.512 142.535 474.702 144.038C468.891 145.541 454.237 142.745 447.442 140.914C443.435 139.83 440.894 143.492 439.491 146.661C439.702 142.463 441.059 138.402 443.417 134.921C450.202 136.497 456.987 139.894 458.463 140.386C461.013 141.297 467.042 128.892 472.006 124.402C476.969 119.912 481.168 131.406 481.168 131.406L491.451 144.548Z" fill="url(#paint41_linear)"/>
<path d="M502.872 152.845C503.628 149.612 504.948 145.914 504.775 141.005C504.402 130.468 497.152 125.067 486.906 121.123L477.015 117.999C476.104 117.717 459.383 113.209 450.603 116.333C447.306 117.507 442.597 120.996 442.096 123.828C440.83 131.06 439.938 134.894 440.539 140.696C446.85 126.597 454.483 148.118 475.594 139.211C476.632 138.774 481.141 130.613 473.436 127.708C484.365 129.429 477.744 140.368 477.744 140.368L490.239 144.011C490.239 144.011 491.15 150.386 489.055 160.405C491.498 159.655 494.078 159.462 496.606 159.84C499.238 157.618 502.48 154.539 502.872 152.845Z" fill="url(#paint42_linear)"/>
<defs>
<linearGradient id="paint0_linear" x1="23.6434" y1="302.366" x2="576.535" y2="302.366" gradientUnits="userSpaceOnUse">
<stop offset="0.01" stop-color="#FDE112"/>
<stop offset="1" stop-color="#FDE112"/>
</linearGradient>
<linearGradient id="paint1_linear" x1="427.742" y1="434.091" x2="450.594" y2="434.091" gradientUnits="userSpaceOnUse">
<stop offset="0.01" stop-color="#BBBFD9"/>
<stop offset="1" stop-color="#D6DBF8"/>
</linearGradient>
<linearGradient id="paint2_linear" x1="14813.2" y1="51997.5" x2="15508.3" y2="51997.5" gradientUnits="userSpaceOnUse">
<stop offset="0.01" stop-color="#BBBFD9"/>
<stop offset="1" stop-color="#D6DBF8"/>
</linearGradient>
<linearGradient id="paint3_linear" x1="12876.4" y1="57957.6" x2="13475.4" y2="57957.6" gradientUnits="userSpaceOnUse">
<stop offset="0.01" stop-color="#BBBFD9"/>
<stop offset="1" stop-color="#D6DBF8"/>
</linearGradient>
<linearGradient id="paint4_linear" x1="484.72" y1="385.128" x2="484.72" y2="230.534" gradientUnits="userSpaceOnUse">
<stop stop-color="#747278"/>
<stop offset="0.39" stop-color="#747278"/>
<stop offset="1" stop-color="#747278"/>
</linearGradient>
<linearGradient id="paint5_linear" x1="533.273" y1="311.164" x2="547.326" y2="312.567" gradientUnits="userSpaceOnUse">
<stop offset="0.11" stop-color="#747278"/>
<stop offset="0.56" stop-color="#747278"/>
<stop offset="1" stop-color="#403DA0"/>
<stop offset="1" stop-color="#747278"/>
</linearGradient>
<linearGradient id="paint6_linear" x1="452.215" y1="471.87" x2="438.444" y2="447.68" gradientUnits="userSpaceOnUse">
<stop stop-color="#753200"/>
<stop offset="1" stop-color="#A04400"/>
</linearGradient>
<linearGradient id="paint7_linear" x1="11840.8" y1="16998.7" x2="12320.4" y2="16129.6" gradientUnits="userSpaceOnUse">
<stop stop-color="#753200"/>
<stop offset="1" stop-color="#A04400"/>
</linearGradient>
<linearGradient id="paint8_linear" x1="2352.75" y1="-3307.23" x2="2410.62" y2="-3296.09" gradientUnits="userSpaceOnUse">
<stop stop-color="#753200"/>
<stop offset="1" stop-color="#A04400"/>
</linearGradient>
<linearGradient id="paint9_linear" x1="370.646" y1="366.202" x2="442.205" y2="366.202" gradientUnits="userSpaceOnUse">
<stop stop-color="#A7A5EE"/>
<stop offset="0.53" stop-color="#8988D5"/>
</linearGradient>
<linearGradient id="paint10_linear" x1="438.335" y1="455.576" x2="412.487" y2="400.857" gradientUnits="userSpaceOnUse">
<stop stop-color="#747278"/>
<stop offset="0.44" stop-color="#504C5E"/>
<stop offset="0.89" stop-color="#504C5E"/>
</linearGradient>
<linearGradient id="paint11_linear" x1="423.353" y1="297.603" x2="415.147" y2="273.358" gradientUnits="userSpaceOnUse">
<stop stop-color="#753200"/>
<stop offset="0.05" stop-color="#793300"/>
<stop offset="0.38" stop-color="#8E3D00"/>
<stop offset="0.7" stop-color="#9C4200"/>
<stop offset="1" stop-color="#A04400"/>
</linearGradient>
<linearGradient id="paint12_linear" x1="353.305" y1="402.97" x2="517.809" y2="402.97" gradientUnits="userSpaceOnUse">
<stop stop-color="#504C5E"/>
<stop offset="0.71" stop-color="#504A5C"/>
</linearGradient>
<linearGradient id="paint13_linear" x1="29980.9" y1="22439.9" x2="35258.6" y2="20441.1" gradientUnits="userSpaceOnUse">
<stop stop-color="#753200"/>
<stop offset="1" stop-color="#A04400"/>
</linearGradient>
<linearGradient id="paint14_linear" x1="492.779" y1="184.448" x2="463.249" y2="204.045" gradientUnits="userSpaceOnUse">
<stop stop-color="#A04400"/>
<stop offset="1" stop-color="#753200"/>
</linearGradient>
<linearGradient id="paint15_linear" x1="1815.34" y1="-2107.75" x2="1787.95" y2="-2098.22" gradientUnits="userSpaceOnUse">
<stop stop-color="#753200"/>
<stop offset="1" stop-color="#A04400"/>
</linearGradient>
<linearGradient id="paint16_linear" x1="153804" y1="51692.7" x2="153127" y2="51692.7" gradientUnits="userSpaceOnUse">
<stop offset="0.01" stop-color="#BBBFD9"/>
<stop offset="1" stop-color="#D6DBF8"/>
</linearGradient>
<linearGradient id="paint17_linear" x1="154024" y1="52178.6" x2="153324" y2="52178.6" gradientUnits="userSpaceOnUse">
<stop offset="0.01" stop-color="#BBBFD9"/>
<stop offset="1" stop-color="#D6DBF8"/>
</linearGradient>
<linearGradient id="paint18_linear" x1="143263" y1="58167.7" x2="142660" y2="58167.7" gradientUnits="userSpaceOnUse">
<stop offset="0.01" stop-color="#BBBFD9"/>
<stop offset="1" stop-color="#D6DBF8"/>
</linearGradient>
<linearGradient id="paint19_linear" x1="728954" y1="66782.1" x2="728954" y2="39966.7" gradientUnits="userSpaceOnUse">
<stop stop-color="#747278"/>
<stop offset="0.39" stop-color="#747278"/>
<stop offset="1" stop-color="#747278"/>
</linearGradient>
<linearGradient id="paint20_linear" x1="330832" y1="52681.6" x2="329999" y2="52710.6" gradientUnits="userSpaceOnUse">
<stop offset="0.11" stop-color="#747278"/>
<stop offset="0.56" stop-color="#747278"/>
<stop offset="1" stop-color="#747278"/>
</linearGradient>
<linearGradient id="paint21_linear" x1="232.701" y1="436.089" x2="255.614" y2="440.62" gradientUnits="userSpaceOnUse">
<stop stop-color="#A04400"/>
<stop offset="0.71" stop-color="#753200"/>
</linearGradient>
<linearGradient id="paint22_linear" x1="437436" y1="41645.2" x2="433389" y2="41645.2" gradientUnits="userSpaceOnUse">
<stop stop-color="#753200"/>
<stop offset="1" stop-color="#A04400"/>
</linearGradient>
<linearGradient id="paint23_linear" x1="157.809" y1="303.286" x2="293.167" y2="303.286" gradientUnits="userSpaceOnUse">
<stop offset="0.01" stop-color="#FFD1BD"/>
<stop offset="0.25" stop-color="#FFD1BD"/>
<stop offset="0.71" stop-color="#FFD1BD"/>
<stop offset="1" stop-color="#FFD1BD"/>
</linearGradient>
<linearGradient id="paint24_linear" x1="421689" y1="13776.7" x2="417927" y2="13776.7" gradientUnits="userSpaceOnUse">
<stop stop-color="#753200"/>
<stop offset="1" stop-color="#A04400"/>
</linearGradient>
<linearGradient id="paint25_linear" x1="202796" y1="15942.5" x2="201880" y2="15942.5" gradientUnits="userSpaceOnUse">
<stop offset="0.01" stop-color="#696C7A"/>
<stop offset="0.25" stop-color="#787B88"/>
<stop offset="0.71" stop-color="#A0A2AB"/>
<stop offset="1" stop-color="#BCBEC4"/>
</linearGradient>
<linearGradient id="paint26_linear" x1="337055" y1="18374.7" x2="334588" y2="18374.7" gradientUnits="userSpaceOnUse">
<stop offset="0.01" stop-color="#696C7A"/>
<stop offset="0.25" stop-color="#787B88"/>
<stop offset="0.71" stop-color="#A0A2AB"/>
<stop offset="1" stop-color="#BCBEC4"/>
</linearGradient>
<linearGradient id="paint27_linear" x1="265392" y1="-20543.5" x2="266085" y2="-19981.7" gradientUnits="userSpaceOnUse">
<stop stop-color="#A04400"/>
<stop offset="1" stop-color="#753200"/>
</linearGradient>
<linearGradient id="paint28_linear" x1="13629.2" y1="20813.2" x2="9900.16" y2="20355.1" gradientUnits="userSpaceOnUse">
<stop stop-color="#753200"/>
<stop offset="1" stop-color="#A04400"/>
</linearGradient>
<linearGradient id="paint29_linear" x1="205.069" y1="149.567" x2="170.942" y2="165.797" gradientUnits="userSpaceOnUse">
<stop offset="0.1" stop-color="#753200"/>
<stop offset="0.48" stop-color="#8A3B00" stop-opacity="0.52"/>
<stop offset="0.82" stop-color="#9A4100" stop-opacity="0.14"/>
<stop offset="1" stop-color="#A04400" stop-opacity="0"/>
</linearGradient>
<linearGradient id="paint30_linear" x1="55184" y1="4300.44" x2="55891.6" y2="4859.59" gradientUnits="userSpaceOnUse">
<stop stop-color="#A04400"/>
<stop offset="1" stop-color="#753200"/>
</linearGradient>
<linearGradient id="paint31_linear" x1="35037.4" y1="3749.7" x2="35060.9" y2="3757.29" gradientUnits="userSpaceOnUse">
<stop stop-color="#753200"/>
<stop offset="1" stop-color="#A04400"/>
</linearGradient>
<linearGradient id="paint32_linear" x1="147.936" y1="159.166" x2="222.501" y2="159.166" gradientUnits="userSpaceOnUse">
<stop stop-color="#FA6300"/>
<stop offset="0.26" stop-color="#F96200"/>
<stop offset="0.72" stop-color="#FA6400"/>
<stop offset="1" stop-color="#FA6400"/>
</linearGradient>
<linearGradient id="paint33_linear" x1="16187" y1="24324.7" x2="25163.1" y2="24324.7" gradientUnits="userSpaceOnUse">
<stop offset="0.01" stop-color="#FFD1BD"/>
<stop offset="0.25" stop-color="#FFD1BD"/>
<stop offset="0.71" stop-color="#FFD1BD"/>
<stop offset="1" stop-color="#FFD1BD"/>
</linearGradient>
<linearGradient id="paint34_linear" x1="6668.3" y1="3370.09" x2="6504.35" y2="3082.15" gradientUnits="userSpaceOnUse">
<stop stop-color="#753200"/>
<stop offset="1" stop-color="#A04400"/>
</linearGradient>
<linearGradient id="paint35_linear" x1="407.287" y1="292.776" x2="433.59" y2="292.776" gradientUnits="userSpaceOnUse">
<stop stop-color="white"/>
<stop offset="0.16" stop-color="#F2F3F8"/>
<stop offset="0.71" stop-color="#CACDE2"/>
<stop offset="0.99" stop-color="#BBBFD9"/>
</linearGradient>
<linearGradient id="paint36_linear" x1="10720.7" y1="98911.3" x2="10720.7" y2="61516.6" gradientUnits="userSpaceOnUse">
<stop offset="0.01" stop-color="#BBBFD9"/>
<stop offset="1" stop-color="#D6DBF8"/>
</linearGradient>
<linearGradient id="paint37_linear" x1="175089" y1="99123" x2="175089" y2="61613.7" gradientUnits="userSpaceOnUse">
<stop offset="0.01" stop-color="#BBBFD9"/>
<stop offset="1" stop-color="#D6DBF8"/>
</linearGradient>
<linearGradient id="paint38_linear" x1="126240" y1="6823.59" x2="126240" y2="6491.2" gradientUnits="userSpaceOnUse">
<stop offset="0.11" stop-color="#747278"/>
<stop offset="0.56" stop-color="#747278"/>
<stop offset="1" stop-color="#747278"/>
</linearGradient>
<linearGradient id="paint39_linear" x1="153681" y1="9603.78" x2="152922" y2="9603.78" gradientUnits="userSpaceOnUse">
<stop stop-color="white"/>
<stop offset="0.16" stop-color="#F2F3F8"/>
<stop offset="0.71" stop-color="#CACDE2"/>
<stop offset="0.99" stop-color="#BBBFD9"/>
</linearGradient>
<linearGradient id="paint40_linear" x1="67463.8" y1="13248.8" x2="67481.1" y2="11337" gradientUnits="userSpaceOnUse">
<stop stop-color="#A04400"/>
<stop offset="1" stop-color="#753200"/>
</linearGradient>
<linearGradient id="paint41_linear" x1="444.774" y1="136.278" x2="488.245" y2="140.914" gradientUnits="userSpaceOnUse">
<stop stop-color="#A04400" stop-opacity="0"/>
<stop offset="0.18" stop-color="#9A4100" stop-opacity="0.14"/>
<stop offset="0.52" stop-color="#8A3B00" stop-opacity="0.52"/>
<stop offset="0.9" stop-color="#753200"/>
</linearGradient>
<linearGradient id="paint42_linear" x1="472.561" y1="159.549" x2="472.561" y2="119.375" gradientUnits="userSpaceOnUse">
<stop stop-color="#1F1844" stop-opacity="0"/>
<stop offset="0.03" stop-color="#1F1844" stop-opacity="0.13"/>
<stop offset="0.11" stop-opacity="0.45"/>
<stop offset="0.21" stop-opacity="0.7"/>
<stop offset="0.33" stop-opacity="0.87"/>
<stop offset="0.5" stop-opacity="0.97"/>
<stop offset="0.96"/>
</linearGradient>
</defs>
</svg>
