<svg width="158" height="39" viewBox="0 0 158 39" fill="none" xmlns="http://www.w3.org/2000/svg">
<path d="M95.7739 29.1166V22.0524C95.7739 19.1051 93.2681 16.6722 90.2321 16.6722C87.1964 16.6722 84.7386 19.1049 84.7386 22.0524V29.1166C84.7386 30.0523 83.9194 30.8008 83.0037 30.8008C82.04 30.8008 81.2208 30.0523 81.2208 29.1166V22.0524C81.2208 19.1051 78.7632 16.6722 75.7273 16.6722C72.6913 16.6722 70.1855 19.1049 70.1855 22.0524V29.1166C70.1855 30.0523 69.4146 30.8008 68.4508 30.8008C67.4871 30.8008 66.7162 30.0523 66.7162 29.1166V22.0524C66.7162 17.2338 70.7639 13.3038 75.7275 13.3038C78.7152 13.3038 81.3653 14.7541 83.004 16.9061C84.5943 14.7541 87.2447 13.3038 90.2321 13.3038C95.1955 13.3038 99.2435 17.2336 99.2435 22.0524V29.1166C99.2435 30.0523 98.4725 30.8008 97.5086 30.8008C96.5448 30.8008 95.7739 30.0523 95.7739 29.1166Z" fill="#444245"/>
<path d="M104.447 23.7356C105.17 25.8877 107.242 27.4315 109.699 27.4315C111.145 27.4315 112.542 26.8703 113.603 25.8409C114.277 25.1862 115.386 25.1862 116.06 25.8409C116.735 26.4958 116.735 27.5718 116.06 28.2268C114.374 29.911 112.109 30.7998 109.699 30.7998C104.736 30.7998 100.688 26.8701 100.688 22.0515C100.688 17.2329 104.736 13.3029 109.699 13.3029C114.663 13.3029 118.711 17.2326 118.711 22.0515C118.711 22.9871 117.891 23.7356 116.976 23.7356H104.447V23.7356ZM104.447 20.3673H114.952C114.229 18.2621 112.109 16.6715 109.699 16.6715C107.242 16.6715 105.17 18.2621 104.447 20.3673Z" fill="#444245"/>
<path d="M139.093 22.0517V14.9875C139.093 14.0986 139.864 13.3033 140.828 13.3033C141.792 13.3033 142.563 14.0986 142.563 14.9875V22.0517C142.563 24.999 145.069 27.4317 148.105 27.4317C151.141 27.4317 153.598 24.999 153.598 22.0517V14.9875C153.598 14.0986 154.418 13.3033 155.381 13.3033C156.297 13.3033 157.116 14.0986 157.116 14.9875V22.0517C157.116 26.8703 153.068 30.8001 148.105 30.8001C143.141 30.8001 139.093 26.8703 139.093 22.0517Z" fill="#444245"/>
<path d="M134.179 29.1159V22.0517C134.179 19.1044 131.721 16.6715 128.685 16.6715C125.649 16.6715 123.143 19.1042 123.143 22.0517V29.1159C123.143 30.0516 122.372 30.8001 121.408 30.8001C120.445 30.8001 119.673 30.0516 119.673 29.1159V22.0517C119.673 17.2331 123.721 13.3031 128.685 13.3031C133.648 13.3031 137.696 17.2328 137.696 22.0517V29.1159C137.696 30.0516 136.877 30.8001 135.961 30.8001C134.998 30.8001 134.179 30.0516 134.179 29.1159Z" fill="#FD6500"/>
<path d="M141.208 33.2404C141.208 33.9542 140.509 34.4715 139.647 34.4715H117.788C116.926 34.4715 116.227 33.9542 116.227 33.2404C116.227 32.5266 116.926 32.0093 117.788 32.0093H139.647C140.509 32.0093 141.208 32.5266 141.208 33.2404Z" fill="#FD6500"/>
<path d="M131.977 11.2648C131.977 11.8427 131.469 12.3112 130.873 12.3112H126.435C125.839 12.3112 125.328 11.8427 125.328 11.2648V11.1417C125.328 10.5638 125.839 10.0952 126.435 10.0952H130.873C131.469 10.0952 131.977 10.5638 131.977 11.1417V11.2648Z" fill="#FD6500"/>
<path d="M129.76 11.3264H127.544V14.5273H129.76V11.3264Z" fill="#FD6500"/>
<path d="M10.563 19.9568L5.5376 25.1103V31H3.90513V8.59354H5.5376V22.9977L19.5256 8.59354H21.5102L11.6514 18.7725L22.1824 31H20.1978L10.563 19.9568ZM30.3675 31.128C28.7884 31.128 27.3586 30.7653 26.0783 30.0397C24.8192 29.3142 23.8269 28.3112 23.1014 27.0309C22.3759 25.7291 22.0131 24.2674 22.0131 22.6456C22.0131 21.0238 22.3759 19.5727 23.1014 18.2923C23.8269 16.9906 24.8192 15.977 26.0783 15.2515C27.3586 14.5259 28.7884 14.1631 30.3675 14.1631C31.9466 14.1631 33.3657 14.5259 34.6247 15.2515C35.9051 15.977 36.9081 16.9906 37.6336 18.2923C38.3591 19.5727 38.7219 21.0238 38.7219 22.6456C38.7219 24.2674 38.3591 25.7291 37.6336 27.0309C36.9081 28.3112 35.9051 29.3142 34.6247 30.0397C33.3657 30.7653 31.9466 31.128 30.3675 31.128ZM30.3675 29.6876C31.6479 29.6876 32.7895 29.3889 33.7925 28.7914C34.8168 28.1939 35.617 27.3616 36.1932 26.2946C36.7907 25.2277 37.0894 24.0113 37.0894 22.6456C37.0894 21.2799 36.7907 20.0635 36.1932 18.9965C35.617 17.9296 34.8168 17.0973 33.7925 16.4998C32.7895 15.9023 31.6479 15.6036 30.3675 15.6036C29.0871 15.6036 27.9348 15.9023 26.9105 16.4998C25.9075 17.0973 25.1073 17.9296 24.5098 18.9965C23.9336 20.0635 23.6456 21.2799 23.6456 22.6456C23.6456 24.0113 23.9336 25.2277 24.5098 26.2946C25.1073 27.3616 25.9075 28.1939 26.9105 28.7914C27.9348 29.3889 29.0871 29.6876 30.3675 29.6876ZM48.9366 31.128C47.3575 31.128 45.9277 30.7653 44.6474 30.0397C43.3883 29.3142 42.396 28.3112 41.6705 27.0309C40.945 25.7291 40.5822 24.2674 40.5822 22.6456C40.5822 21.0238 40.945 19.5727 41.6705 18.2923C42.396 16.9906 43.3883 15.977 44.6474 15.2515C45.9277 14.5259 47.3575 14.1631 48.9366 14.1631C50.5157 14.1631 51.9348 14.5259 53.1938 15.2515C54.4742 15.977 55.4772 16.9906 56.2027 18.2923C56.9282 19.5727 57.291 21.0238 57.291 22.6456C57.291 24.2674 56.9282 25.7291 56.2027 27.0309C55.4772 28.3112 54.4742 29.3142 53.1938 30.0397C51.9348 30.7653 50.5157 31.128 48.9366 31.128ZM48.9366 29.6876C50.217 29.6876 51.3586 29.3889 52.3616 28.7914C53.3859 28.1939 54.1861 27.3616 54.7623 26.2946C55.3598 25.2277 55.6585 24.0113 55.6585 22.6456C55.6585 21.2799 55.3598 20.0635 54.7623 18.9965C54.1861 17.9296 53.3859 17.0973 52.3616 16.4998C51.3586 15.9023 50.217 15.6036 48.9366 15.6036C47.6562 15.6036 46.5039 15.9023 45.4796 16.4998C44.4766 17.0973 43.6764 17.9296 43.0789 18.9965C42.5027 20.0635 42.2147 21.2799 42.2147 22.6456C42.2147 24.0113 42.5027 25.2277 43.0789 26.2946C43.6764 27.3616 44.4766 28.1939 45.4796 28.7914C46.5039 29.3889 47.6562 29.6876 48.9366 29.6876ZM60.9758 7.24915H62.5763V31H60.9758V7.24915Z" fill="#444245"/>
</svg>
