<svg width="170" height="48" viewBox="0 0 170 48" fill="none" xmlns="http://www.w3.org/2000/svg">
<path d="M164.454 18.7675C165.105 18.7675 165.644 18.993 166.069 19.4438C166.495 19.8696 166.708 20.4081 166.708 21.0592V30.6018C166.708 33.3067 165.957 35.4231 164.454 36.9509C162.976 38.4787 160.86 39.2426 158.105 39.2426C155.35 39.2426 153.233 38.4787 151.756 36.9509C150.278 35.4231 149.539 33.3067 149.539 30.6018V21.0592C149.539 20.4081 149.752 19.8696 150.178 19.4438C150.603 18.993 151.142 18.7675 151.793 18.7675C152.444 18.7675 152.983 18.993 153.409 19.4438C153.834 19.8696 154.047 20.4081 154.047 21.0592V30.6018C154.047 32.1296 154.385 33.2692 155.062 34.0205C155.738 34.7469 156.752 35.11 158.105 35.11C159.482 35.11 160.509 34.7469 161.185 34.0205C161.862 33.2692 162.2 32.1296 162.2 30.6018V21.0592C162.2 20.4081 162.413 19.8696 162.838 19.4438C163.264 18.993 163.803 18.7675 164.454 18.7675Z" fill="#444245"/>
<path d="M142.447 35.329V27.0378C142.447 23.5786 139.562 20.7231 135.999 20.7231C132.436 20.7231 129.494 23.5783 129.494 27.0378V35.329C129.494 36.4272 128.589 37.3057 127.458 37.3057C126.327 37.3057 125.422 36.4272 125.422 35.329V27.0378C125.422 21.3823 130.173 16.7697 135.999 16.7697C141.824 16.7697 146.575 21.382 146.575 27.0378V35.329C146.575 36.4272 145.614 37.3057 144.539 37.3057C143.408 37.3057 142.447 36.4272 142.447 35.329Z" fill="#FD6500"/>
<path d="M150.697 40.1699C150.697 41.0077 149.877 41.6149 148.865 41.6149H123.209C122.197 41.6149 121.377 41.0077 121.377 40.1699C121.377 39.3321 122.197 38.725 123.209 38.725H148.865C149.877 38.725 150.697 39.3321 150.697 40.1699Z" fill="#FD6500"/>
<path d="M139.862 14.3772C139.862 15.0555 139.266 15.6054 138.567 15.6054H133.358C132.659 15.6054 132.059 15.0555 132.059 14.3772V14.2327C132.059 13.5545 132.659 13.0045 133.358 13.0045H138.567C139.266 13.0045 139.862 13.5545 139.862 14.2327V14.3772Z" fill="#FD6500"/>
<path d="M137.261 14.4496H134.66V18.2065H137.261V14.4496Z" fill="#FD6500"/>
<path d="M98.1592 11.6641C98.7853 11.6641 99.3238 11.8896 99.7746 12.3404C100.25 12.7662 100.488 13.3047 100.488 13.9559V35.7083C100.488 36.3595 100.276 36.9105 99.8498 37.3613C99.424 37.7871 98.8604 38 98.1592 38C97.4579 38 96.8818 37.7871 96.431 37.3613C96.0052 36.9355 95.7923 36.3845 95.7923 35.7083V20.568L89.5934 30.0354C89.343 30.3359 89.0549 30.5864 88.7293 30.7868C88.4037 30.9621 88.0656 31.0372 87.715 31.0122C87.3894 31.0372 87.0638 30.9621 86.7382 30.7868C86.4126 30.5864 86.1246 30.3359 85.8741 30.0354L79.6752 20.2299V35.7083C79.6752 36.3845 79.4748 36.9355 79.0741 37.3613C78.6734 37.7871 78.1474 38 77.4962 38C76.8701 38 76.3566 37.7871 75.9559 37.3613C75.5552 36.9105 75.3548 36.3595 75.3548 35.7083V13.9559C75.3548 13.3297 75.5802 12.7912 76.031 12.3404C76.5069 11.8896 77.0704 11.6641 77.7216 11.6641C78.0973 11.6641 78.473 11.7643 78.8487 11.9647C79.2244 12.14 79.5124 12.378 79.7128 12.6785L87.9028 25.2641L96.3183 12.6785C96.5186 12.378 96.7816 12.14 97.1072 11.9647C97.4579 11.7643 97.8085 11.6641 98.1592 11.6641ZM122.291 27.4807C122.266 28.0818 122.028 28.5702 121.577 28.9459C121.126 29.3216 120.6 29.5094 119.999 29.5094H107.602C107.902 30.9871 108.591 32.1518 109.668 33.0033C110.745 33.8298 111.96 34.2431 113.312 34.2431C114.339 34.2431 115.14 34.1554 115.716 33.9801C116.293 33.7798 116.743 33.5794 117.069 33.379C117.42 33.1536 117.658 33.0033 117.783 32.9282C118.234 32.7028 118.659 32.5901 119.06 32.5901C119.586 32.5901 120.037 32.7779 120.413 33.1536C120.788 33.5293 120.976 33.9676 120.976 34.4685C120.976 35.1448 120.626 35.7584 119.924 36.3094C119.223 36.8855 118.284 37.3739 117.107 37.7746C115.929 38.1753 114.74 38.3757 113.537 38.3757C111.434 38.3757 109.593 37.9374 108.015 37.0608C106.462 36.1842 105.26 34.982 104.408 33.4542C103.557 31.9013 103.131 30.1606 103.131 28.2321C103.131 26.0781 103.582 24.1871 104.483 22.5591C105.385 20.9312 106.575 19.6914 108.052 18.8398C109.53 17.9632 111.108 17.5249 112.786 17.5249C114.439 17.5249 115.992 17.9757 117.445 18.8774C118.922 19.779 120.1 20.9938 120.976 22.5216C121.853 24.0494 122.291 25.7024 122.291 27.4807ZM112.786 21.6575C109.881 21.6575 108.165 23.0225 107.639 25.7525H117.482V25.4895C117.382 24.4376 116.869 23.5359 115.942 22.7846C115.015 22.0332 113.963 21.6575 112.786 21.6575Z" fill="#444245"/>
<path d="M23.3303 36.1591C23.5057 36.4096 23.5933 36.6726 23.5933 36.9481C23.5933 37.3238 23.4556 37.6243 23.1801 37.8497C22.9296 38.0501 22.6416 38.1503 22.316 38.1503C21.9904 38.1503 21.7149 38.0125 21.4895 37.737L11.0077 24.5503L5.89833 29.3591V36.8354C5.87328 37.186 5.74805 37.474 5.52264 37.6994C5.29723 37.8998 5.02172 38 4.69612 38C4.34548 38 4.05745 37.8998 3.83204 37.6994C3.63167 37.474 3.53148 37.186 3.53148 36.8354V12.8664C3.53148 12.5157 3.64419 12.2402 3.86961 12.0398C4.09502 11.8144 4.38305 11.7017 4.73369 11.7017C5.08434 11.7017 5.35984 11.8144 5.56021 12.0398C5.78562 12.2402 5.89833 12.5157 5.89833 12.8664V26.5039L21.0762 12.1525C21.3016 11.9021 21.5771 11.7769 21.9027 11.7769C22.2033 11.7769 22.4537 11.8896 22.6541 12.115C22.8795 12.3404 22.9922 12.5908 22.9922 12.8664C22.9922 13.1669 22.8795 13.4299 22.6541 13.6553L12.811 22.8597L23.3303 36.1591ZM43.7423 28.3823C43.7423 30.2608 43.3291 31.9639 42.5026 33.4917C41.676 35.0195 40.5364 36.2217 39.0838 37.0983C37.6311 37.9499 36.0156 38.3757 34.2374 38.3757C32.4591 38.3757 30.8436 37.9499 29.391 37.0983C27.9383 36.2217 26.7987 35.0195 25.9722 33.4917C25.1457 31.9639 24.7324 30.2608 24.7324 28.3823C24.7324 26.5039 25.1457 24.8008 25.9722 23.273C26.7987 21.7452 27.9383 20.5429 29.391 19.6663C30.8436 18.7897 32.4591 18.3514 34.2374 18.3514C36.0156 18.3514 37.6311 18.7897 39.0838 19.6663C40.5364 20.5429 41.676 21.7452 42.5026 23.273C43.3291 24.8008 43.7423 26.5039 43.7423 28.3823ZM41.4882 28.3823C41.4882 26.8796 41.1751 25.5271 40.549 24.3249C39.9228 23.1227 39.0462 22.1835 37.9191 21.5072C36.8171 20.8059 35.5899 20.4553 34.2374 20.4553C32.8849 20.4553 31.6576 20.8059 30.5556 21.5072C29.4536 22.1835 28.577 23.1227 27.9258 24.3249C27.2996 25.5271 26.9866 26.8796 26.9866 28.3823C26.9866 29.8601 27.2996 31.2 27.9258 32.4022C28.577 33.6044 29.4536 34.5562 30.5556 35.2575C31.6576 35.9337 32.8849 36.2718 34.2374 36.2718C35.5899 36.2718 36.8171 35.9337 37.9191 35.2575C39.0462 34.5812 39.9228 33.642 40.549 32.4398C41.1751 31.2376 41.4882 29.8851 41.4882 28.3823ZM64.5828 28.3823C64.5828 30.2608 64.1696 31.9639 63.3431 33.4917C62.5165 35.0195 61.377 36.2217 59.9243 37.0983C58.4716 37.9499 56.8562 38.3757 55.0779 38.3757C53.2996 38.3757 51.6842 37.9499 50.2315 37.0983C48.7788 36.2217 47.6392 35.0195 46.8127 33.4917C45.9862 31.9639 45.5729 30.2608 45.5729 28.3823C45.5729 26.5039 45.9862 24.8008 46.8127 23.273C47.6392 21.7452 48.7788 20.5429 50.2315 19.6663C51.6842 18.7897 53.2996 18.3514 55.0779 18.3514C56.8562 18.3514 58.4716 18.7897 59.9243 19.6663C61.377 20.5429 62.5165 21.7452 63.3431 23.273C64.1696 24.8008 64.5828 26.5039 64.5828 28.3823ZM62.3287 28.3823C62.3287 26.8796 62.0156 25.5271 61.3895 24.3249C60.7633 23.1227 59.8867 22.1835 58.7596 21.5072C57.6576 20.8059 56.4304 20.4553 55.0779 20.4553C53.7254 20.4553 52.4982 20.8059 51.3961 21.5072C50.2941 22.1835 49.4175 23.1227 48.7663 24.3249C48.1401 25.5271 47.8271 26.8796 47.8271 28.3823C47.8271 29.8601 48.1401 31.2 48.7663 32.4022C49.4175 33.6044 50.2941 34.5562 51.3961 35.2575C52.4982 35.9337 53.7254 36.2718 55.0779 36.2718C56.4304 36.2718 57.6576 35.9337 58.7596 35.2575C59.8867 34.5812 60.7633 33.642 61.3895 32.4398C62.0156 31.2376 62.3287 29.8851 62.3287 28.3823ZM70.1703 36.8729C70.1703 37.1985 70.0576 37.474 69.8322 37.6994C69.6319 37.8998 69.3689 38 69.0433 38C68.7177 38 68.4422 37.8998 68.2168 37.6994C68.0164 37.474 67.9162 37.1985 67.9162 36.8729V11.326C67.9162 11.0004 68.0164 10.7374 68.2168 10.5371C68.4422 10.3117 68.7177 10.199 69.0433 10.199C69.3689 10.199 69.6319 10.3117 69.8322 10.5371C70.0576 10.7374 70.1703 11.0004 70.1703 11.326V36.8729Z" fill="#444245"/>
</svg>
